<?xml version="1.0" encoding="UTF-8"?>
<svg version="1.1" viewBox="0 0 1600 1600" width="1280" height="1280" xmlns="http://www.w3.org/2000/svg">
<path transform="translate(551,711)" d="m0 0v2c0.577 0.227 1.15 0.454 1.75 0.688 5.42 3.16 7.64 8.86 10.2 14.3 1.08 2.17 2.16 4.33 3.25 6.5 0.603 1.21 1.21 2.41 1.81 3.62 0.313 0.626 0.626 1.25 0.949 1.9 8.99 18 8.99 18 9.79 20.3 2.41 3.45 6.49 4.42 10.4 5.13 2.38 0.296 4.75 0.524 7.13 0.722 8.51 0.764 8.51 0.764 9.62 1.88 2.08 0.31 4.17 0.565 6.27 0.797 1.92 0.232 1.92 0.232 3.89 0.469 2.04 0.245 4.09 0.483 6.14 0.703 1.97 0.215 3.94 0.459 5.92 0.703 1.18 0.135 2.36 0.27 3.58 0.409 3.94 1.13 5.56 2.85 8.21 5.92l2 2c0.504 3.04 0.454 5.96 0 9-1.88 2.56-1.88 2.56-4 4h-2c-0.268 0.639-0.536 1.28-0.812 1.94-1.19 2.06-1.19 2.06-4.19 3.06-0.289 0.577-0.577 1.15-0.875 1.75-1.52 3.05-3.61 4.98-6.12 7.25-0.99 0.33-1.98 0.66-3 1-0.691 1.32-1.36 2.66-2 4-1.48 1.42-1.48 1.42-3.19 2.75-5 4.11-9.22 8.87-12.8 14.2-0.461 11.9 2.22 23.7 4.48 35.3 0.553 2.85 1.1 5.69 1.64 8.54 0.165 0.866 0.33 1.73 0.5 2.62 0.662 4.36 1.4 9.5-0.617 13.5h-2c-0.33 0.99-0.66 1.98-1 3-13.2 2.01-24.1-6.06-34.8-12.7-2.88-1.69-5.85-3-8.93-4.29-3.39-1.5-6.61-3.33-9.84-5.16-4.52-1.58-8.14-0.106-12.3 1.85-1.37 0.694-2.74 1.4-4.1 2.11-1.02 0.515-1.02 0.515-2.05 1.04-5.17 2.64-10.2 5.51-15.2 8.42-4.41 2.52-8.92 4.83-13.5 7.04-1.06 0.512-2.11 1.02-3.2 1.55-3.33 1.22-5.6 1.53-9.11 1.14-2.51-1.35-3.95-2.95-6-5v-2h-2c-0.0551-1.52-0.0933-3.04-0.125-4.56-0.0232-0.847-0.0464-1.69-0.0703-2.57 0.186-2.74 0.822-5 1.62-7.61 1.37-5.42 1.89-11 2.63-16.6 0.342-2.54 0.687-5.08 1.04-7.61 0.15-1.12 0.299-2.24 0.453-3.39 0.449-2.69 0.449-2.69 1.45-4.69 0.236-2.27 0.236-2.27 0.25-4.81 0.0387-1.28 0.0387-1.28 0.0781-2.58-1.25-9.93-13.2-18.6-20.4-24.7-1.97-1.91-1.97-1.91-2.97-4.91-1.33-0.674-2.66-1.34-4-2-1.76-1.57-3.46-3.2-5.12-4.88-0.869-0.864-1.74-1.73-2.63-2.62-2.82-3.16-4.06-5.28-4.68-9.45 0.589-4.12 2.3-5.44 5.44-8.06 3.43-2.28 5.51-2.52 9.57-3.04 1.29-0.17 2.58-0.339 3.91-0.514 1.36-0.172 2.73-0.343 4.09-0.514 2.67-0.34 5.34-0.687 8-1.04 1.19-0.15 2.37-0.299 3.59-0.453 2.78-0.293 2.78-0.293 4.84-1.45 3.75-0.407 7.5-0.768 11.3-1.07 4.59-0.444 8.08-0.887 11.7-3.93 4.08-5.15 6.6-11.2 9.38-17.1 0.977-2.07 1.96-4.13 2.93-6.2 0.465-0.984 0.93-1.97 1.41-2.98 2.35-4.94 4.77-9.84 7.28-14.7 0.353-0.713 0.706-1.43 1.07-2.16 3.33-6.39 6.78-8.34 13.9-7.84zm-59 129 1 3zm-6 35 1 2z" fill="#FCDD3F"/>
<path transform="translate(1304 710)" d="m0 0c4.42 0.789 5.68 2.2 8.5 5.62 0.637 0.736 1.27 1.47 1.93 2.23 2.33 3.12 3.93 6.36 5.51 9.89 0.454 0.996 0.454 0.996 0.918 2.01 0.889 1.95 1.77 3.91 2.64 5.86 1.65 3.68 3.31 7.34 5 11 0.402 0.881 0.402 0.881 0.812 1.78 0.88 1.91 1.78 3.82 2.69 5.72 0.547 1.17 1.09 2.33 1.66 3.53 2.56 4.12 4.94 5.51 9.61 6.63 0.966 0.133 1.93 0.266 2.93 0.402 3.66 0.52 7.26 1.13 10.9 1.91 7.31 1.49 14.7 2.09 22.2 2.8 12.8 1.35 12.8 1.35 17.7 7.04 1.82 3.56 2.28 5.26 1.62 9.19-2.38 4.32-5.33 7.72-9 11h-2c-0.26 0.588-0.521 1.18-0.789 1.78-1.29 2.36-2.66 3.87-4.59 5.72-0.62 0.599-1.24 1.2-1.88 1.82-0.576 0.556-1.15 1.11-1.75 1.68-0.763 0.804-1.53 1.61-2.31 2.44-1.69 1.56-1.69 1.56-3.69 1.56-0.268 0.639-0.536 1.28-0.812 1.94-1.19 2.06-1.19 2.06-4.19 3.06-0.289 0.577-0.577 1.15-0.875 1.75-1.5 3.01-3.73 4.92-6.12 7.25-5.92 11.8 3.08 36.6 5.56 48.7 1.04 5.3 1.45 9.62-1.43 14.3-4.57 2.83-7.89 3.04-13.1 1.94-4.88-1.99-9.41-4.42-14-7-0.77-0.428-1.54-0.856-2.33-1.3-1.37-0.768-2.75-1.54-4.12-2.32-5.49-2.98-11.1-5.71-16.7-8.47-1.73-0.862-3.44-1.76-5.15-2.66-3.54-1.66-4.96-1.43-8.69-0.258-2.25 1.13-4.41 2.34-6.58 3.61-4.83 2.78-9.89 5.15-14.9 7.61-5.45 2.7-10.8 5.55-16.1 8.55-4.87 2.46-10.1 3.18-15.4 2.23-2.85-1.52-4.37-3.24-6-6-0.768-8.51 1.28-16.8 2.94-25.1 0.42-2.14 0.838-4.28 1.25-6.42 0.377-1.94 0.761-3.88 1.15-5.82 2.6-13.1 2.6-13.1-0.336-25.7h-2v-2c-0.866-0.371-0.866-0.371-1.75-0.75-2.58-1.43-4.31-3.03-6.25-5.25v-2c-0.598-0.268-1.2-0.536-1.81-0.812-2.19-1.19-3.6-2.28-5.19-4.19v-2c-1.48-0.495-1.48-0.495-3-1-1.7-1.63-3.36-3.3-5-5-0.944-0.874-1.89-1.75-2.86-2.65-0.954-0.9-1.91-1.8-2.89-2.73-1.45-1.34-1.45-1.34-2.92-2.71-2.74-3.43-3.15-5.58-3.33-9.91 0.765-3.66 1.68-4.75 4.65-7.07 3.66-2.11 6.25-2.68 10.4-3.16 0.979-0.121 0.979-0.121 1.98-0.245 2.06-0.253 4.13-0.483 6.19-0.712 2.08-0.244 4.16-0.493 6.24-0.744 1.87-0.225 3.75-0.438 5.63-0.651 2.82-0.253 2.82-0.253 4.89-1.42 3.26-0.406 6.52-0.765 9.79-1.07 4.86-0.536 8.97-1.31 13.2-3.93 2.1-3.04 3.5-6.29 4.94-9.69 0.855-1.91 1.71-3.81 2.57-5.71 0.418-0.946 0.836-1.89 1.27-2.87 1.74-3.88 3.62-7.69 5.54-11.5 0.328-0.65 0.655-1.3 0.993-1.97 0.893-1.76 1.79-3.52 2.69-5.28 0.472-0.927 0.944-1.85 1.43-2.81 5.64-10.7 5.64-10.7 12.1-11.8z" fill="#FCDD3F"/>
<path transform="translate(1058,712)" d="m0 0v2h2c10.5 19.9 10.5 19.9 15.4 29.7 0.325 0.646 0.65 1.29 0.984 1.96 1.39 2.78 2.74 5.57 4 8.42 0.398 0.886 0.797 1.77 1.21 2.68 0.311 0.737 0.621 1.47 0.941 2.23 3.03 4.08 6.64 5.66 11.5 6.59 3.46 0.448 6.91 0.799 10.4 1.11 2.36 0.23 4.72 0.463 7.09 0.699 1.56 0.142 1.56 0.142 3.15 0.288 2.39 0.325 2.39 0.325 3.39 1.33 1.48 0.225 2.96 0.396 4.45 0.543 1.37 0.158 1.37 0.158 2.77 0.318 1.92 0.215 3.84 0.413 5.76 0.594 6.42 0.778 10.9 2.33 15 7.54 1.22 2.88 1.57 4.9 1 8-2.65 5.92-6.91 10.1-11.8 14.2-4.69 3.98-8.96 8.49-13.2 13-1.98 1.86-1.98 1.86-3.97 2.83-2.7 1.37-4.28 3.12-6.27 5.4-0.706 0.771-1.41 1.54-2.14 2.34-4.1 8.38-1.26 19.1 0.266 28 0.174 1.06 0.348 2.13 0.527 3.22 0.778 4.67 1.62 9.3 2.71 13.9 0.882 3.85 1.22 7.54 1.27 11.5 0.0284 1.17 0.0567 2.34 0.0859 3.55-0.461 3.14-0.461 3.14-2.22 5.51-3.22 2.34-5.24 2.43-9.15 2.27-6.88-1.43-13-5.28-19.1-8.64-1.29-0.691-2.58-1.38-3.87-2.07-2.48-1.32-4.96-2.64-7.44-3.97-1.23-0.655-2.46-1.31-3.69-1.96-0.638-0.34-1.28-0.68-1.93-1.03-1.89-1-3.79-1.99-5.69-2.97-1.11-0.578-2.21-1.15-3.35-1.75-3.72-1.54-6.36-1.89-10.2-0.427-0.7 0.381-1.4 0.762-2.12 1.15-0.785 0.421-1.57 0.841-2.38 1.27-0.821 0.453-1.64 0.907-2.49 1.37-0.849 0.458-1.7 0.916-2.57 1.39-2.44 1.32-4.87 2.65-7.3 3.99-1.1 0.602-2.2 1.2-3.34 1.82-1.74 0.953-3.49 1.91-5.23 2.87-3.4 1.83-6.87 3.54-10.3 5.23-2.3 1.14-2.3 1.14-5.09 3.08-5.67 0.84-10.4 1.07-15.2-2.19-3.12-4.88-2.37-11.3-1.75-16.8 0.307-1.07 0.614-2.13 0.93-3.23 1.37-4.82 1.99-9.62 2.63-14.6 0.248-1.88 0.499-3.76 0.754-5.64 0.108-0.825 0.215-1.65 0.326-2.5 0.357-2.04 0.357-2.04 1.36-4.04 0.125-2.62 0.185-5.2 0.188-7.81 0.0184-1.07 0.0184-1.07 0.0371-2.16 0.0114-4.09-0.168-7.44-2.22-11-0.99-0.33-1.98-0.66-3-1-1.71-1.62-3.37-3.3-5-5-0.887-0.846-1.77-1.69-2.69-2.56-2.31-2.44-2.31-2.44-3.38-4.62-1.22-2.35-2.61-2.68-4.94-3.81-0.33-0.99-0.66-1.98-1-3-1.87-1.06-1.87-1.06-4-2-4.83-3.49-9.29-7.63-12-13-0.537-3.91-0.357-6.79 2-10 4.48-3.53 8.24-4.69 13.8-5.12 4.22-0.387 8.31-0.852 12.4-1.84 6.62-1.55 13.4-2.14 20.1-2.89 7.51-0.768 7.51-0.768 14.6-3.14 1.27-3.33 1.27-3.33 2-7 0.976-1.68 1.98-3.35 3-5 1.34-2.52 2.61-5.07 3.88-7.62 0.531-1.06 0.531-1.06 1.07-2.15 1.99-4 3.88-8.02 5.68-12.1 6.05-13.4 6.05-13.4 11.3-17.3 3.69-0.978 6.36-0.627 10.1 0.188zm-60 117v7h1v-7h-1zm-2 15 1 3zm-5 28 1 4z" fill="#FCDD3F"/>
<path transform="translate(299,711)" d="m0 0c9.41 6.9 14.6 21.6 19 32 1.27 2.75 2.6 5.47 3.94 8.19 0.335 0.698 0.669 1.4 1.01 2.12 2.67 5.4 5.35 9.27 11 11.7 1.86 0.342 3.73 0.608 5.61 0.816 1.07 0.124 2.13 0.249 3.23 0.377 1.11 0.122 2.21 0.244 3.35 0.369 2.2 0.248 4.4 0.499 6.61 0.754 0.975 0.108 1.95 0.215 2.95 0.326 2.25 0.357 2.25 0.357 3.25 1.36 1.44 0.202 2.88 0.347 4.33 0.465 0.881 0.078 1.76 0.156 2.67 0.236 1.86 0.157 3.72 0.31 5.59 0.461 0.885 0.0793 1.77 0.159 2.68 0.24 0.811 0.067 1.62 0.134 2.46 0.203 4.6 0.798 7.84 3.33 11.3 6.39 1.26 3.79 1.84 7.09 1 11-1.96 3.04-4.46 5.45-7 8-1.32 1.52-2.63 3.04-3.94 4.56-3.69 4.14-7.57 8.16-12.1 11.4h-2c-0.25 0.59-0.5 1.18-0.758 1.79-1.41 2.5-2.89 3.79-5.12 5.59-4.88 4.16-4.88 4.16-8.12 9.62-0.164 5.89 0.638 11.5 1.96 17.3 1.15 5.02 1.89 10.1 2.61 15.2 0.248 1.77 0.499 3.54 0.754 5.31 0.108 0.77 0.215 1.54 0.326 2.33 0.28 2 0.28 2 1.36 3.92 0.175 2.29 0.267 4.58 0.312 6.88 0.0561 1.85 0.0561 1.85 0.113 3.74-0.426 3.38-0.426 3.38-2.18 5.78-3.23 2.3-5.25 2.4-9.16 2.24-6.87-1.43-13-5.28-19.1-8.64-4.39-2.37-8.79-4.73-13.2-7.06-1.77-0.934-3.54-1.87-5.3-2.82-6.47-3.25-11.4-5.42-18.5-3.13-3.02 1.22-3.02 1.22-6 3-1.58 0.775-3.16 1.55-4.75 2.31-3.43 1.71-6.69 3.54-9.94 5.56-18.8 11.4-18.8 11.4-28.3 10.6-3.08-0.767-4.91-2.18-7.03-4.5-3.72-7.44-0.227-20.8 1.97-28.3 1.22-4.34 1.96-8.65 2.66-13.1 0.134-0.808 0.268-1.62 0.406-2.45 1.85-10.1 1.85-10.1-1.67-19.4-2.78-3.47-5.98-6.54-9.15-9.65-0.747-0.741-1.49-1.48-2.26-2.25-2.37-2.35-4.75-4.7-7.13-7.05-2.39-2.36-4.78-4.73-7.16-7.09-1.48-1.47-2.97-2.94-4.45-4.4-0.668-0.661-1.34-1.32-2.02-2-0.885-0.872-0.885-0.872-1.79-1.76-2.16-2.33-2.39-3.56-2.76-6.8 0.375-3.69 0.375-3.69 2.69-6.5 3.57-2.91 5.91-4.42 10.4-5.03 0.961-0.134 1.92-0.267 2.91-0.405 1.56-0.205 1.56-0.205 3.14-0.414 1.07-0.148 2.14-0.296 3.24-0.448 3.42-0.473 6.85-0.935 10.3-1.4 3.41-0.461 6.83-0.925 10.2-1.4 2.12-0.293 4.25-0.58 6.37-0.862 7.21-0.947 7.21-0.947 14.1-3.24 1.23-2.7 1.23-2.7 2-6 1.23-2.72 2.63-5.35 4-8 2.29-4.51 4.51-9.05 6.66-13.6 0.465-0.989 0.931-1.98 1.41-3 0.96-2.04 1.92-4.09 2.87-6.14 5.35-11.3 5.35-11.3 9.94-14.5 3.15-1.02 4.82-1.34 8.12-0.688zm-59 129 1 2zm-4 22 1 2zm-1 7 1 2z" fill="#FCDD3F"/>
<path transform="translate(803,711)" d="m0 0c8.28 4.55 11.7 15.4 15.2 23.6 2.28 5.32 4.81 10.5 7.51 15.6 0.368 0.706 0.737 1.41 1.12 2.14 4.06 7.83 4.06 7.83 11.3 12.4 5 1.45 9.96 1.95 15.1 2.32 1.85 0.153 3.7 0.31 5.55 0.469 0.889 0.0761 1.78 0.152 2.69 0.23 5.21 0.496 10.3 1.38 15.5 2.24 1.4 0.192 2.79 0.38 4.19 0.562 4.51 0.701 8.24 3.03 11.6 6.06 1.84 3.68 1.42 7.34 1.19 11.4-0.645 0.285-1.29 0.57-1.95 0.863-2.26 0.955-2.26 0.955-2.8 3.32-2.11 4.74-6.64 8.64-11.4 10.8-2.39 1.33-2.71 2.6-3.87 5.04-1.39 1.53-2.83 3-4.31 4.44-0.804 0.788-1.61 1.58-2.44 2.39-1.11 1.08-1.11 1.08-2.25 2.18-7.48 7.2-7.48 7.2-10 17 0.232 2.75 0.532 5.37 0.961 8.09 0.11 0.742 0.22 1.48 0.333 2.25 0.232 1.56 0.47 3.11 0.712 4.66 0.371 2.39 0.727 4.78 1.08 7.17 0.228 1.51 0.457 3.03 0.688 4.54 0.107 0.717 0.215 1.43 0.325 2.17 0.291 3.35 0.291 3.35 1.9 6.12 1.27 6.63 2.35 13.8-0.312 20.1-3.63 2.53-6.26 2.63-10.6 2.43-5.59-1.01-10.2-3.79-15.1-6.55-1.91-0.969-3.83-1.93-5.75-2.88-1.42-0.708-2.83-1.42-4.25-2.12v-2c-1.22-0.351-2.43-0.701-3.69-1.06-5.5-1.8-10.3-4.61-15.3-7.51-3.15-1.49-4.61-1.98-8.02-1.43-3.07 1.34-3.07 1.34-6.19 3.19-3.86 2.16-7.71 4.3-11.7 6.25-4.98 2.46-9.88 5.08-14.8 7.71-1.78 0.957-3.57 1.91-5.35 2.85-1.02 0.565-2.05 1.13-3.11 1.71-4.61 2.06-8.94 2.1-13.9 1.29-3.11-2.18-4.56-3.55-5.67-7.19-0.429-3.63-0.017-7.03 0.48-10.6 0.0831-0.674 0.166-1.35 0.252-2.04 0.541-4.13 1.38-8.09 2.43-12.1 4.83-17.9 4.83-17.9 2.36-35.2-1.81-2.16-3.76-3.96-5.85-5.85-0.958-0.963-1.91-1.93-2.86-2.91-5.03-5.16-10.1-10.1-15.7-14.7-1.43-1.4-1.43-1.4-2.43-4.4-1.33-0.672-2.66-1.34-4-2-3.61-3.61-6.85-7.05-7.25-12.2 1.54-3.38 3.47-5.31 6.25-7.75l2-2c2.06-0.486 2.06-0.486 4.63-0.822 0.961-0.13 1.92-0.261 2.91-0.395 1.04-0.133 2.09-0.267 3.16-0.404 2.2-0.299 4.4-0.598 6.6-0.896 3.47-0.462 6.95-0.92 10.4-1.38 3.35-0.442 6.7-0.897 10-1.35 1.55-0.197 1.55-0.197 3.14-0.398 5.2-0.713 9.62-1.42 14.1-4.36 1.69-2.5 3.01-4.75 4.31-7.44 0.377-0.741 0.754-1.48 1.14-2.25 3.34-6.65 6.35-13.5 9.37-20.3 10-22.5 10-22.5 20.2-21.1zm-57 119 1 2zm-6 35 1 3z" fill="#FCDD3F"/>
<path transform="translate(1355,892)" d="m0 0 4 1z" fill="#000002"/>
<path transform="translate(598,892)" d="m0 0 4 1z" fill="#000002"/>
<path transform="translate(1252,892)" d="m0 0c3 1 3 1 3 1z" fill="#000002"/>
<path transform="translate(1104,892)" d="m0 0c3 1 3 1 3 1z" fill="#000002"/>
<path transform="translate(1e3 892)" d="m0 0c3 1 3 1 3 1z" fill="#000002"/>
<path transform="translate(851,892)" d="m0 0c3 1 3 1 3 1z" fill="#000002"/>
<path transform="translate(747,892)" d="m0 0c3 1 3 1 3 1z" fill="#000002"/>
<path transform="translate(347,892)" d="m0 0c3 1 3 1 3 1z" fill="#000002"/>
<path transform="translate(243,892)" d="m0 0c3 1 3 1 3 1z" fill="#000002"/>
</svg>
